{"title":"Child.44.2015.1080p.BluRay.H264.AAC-RARBG","uid":12155069,"size":2831986469,"categoryP":"video","categoryS":"hd___movies","magnet":"?xt=urn:btih:406de0a9cb1cf6183e8f80a2e26fc108beb1d845&amp;dn=Child.44.2015.1080p.BluRay.H264.AAC-RARBG&amp;tr=udp%3A%2F%2Ftracker.openbittorrent.com%3A80&amp;tr=udp%3A%2F%2Fopen.demonii.com%3A1337&amp;tr=udp%3A%2F%2Ftracker.coppersurfer.tk%3A6969&amp;tr=udp%3A%2F%2Fexodus.desync.com%3A6969","seeders":1,"leechers":0,"uploader":"vickey1992","files":8,"time":1437759495,"description":"Video\nID                                       : 1\nFormat                                   : AVC\nFormat/Info                              : Advanced Video Codec\nFormat profile                           : &lt;a class=&quot;__cf_email__&quot; href=&quot;/cdn-cgi/l/email-protection&quot; data-cfemail=&quot;e2aa8b858aa2aed6ccd3&quot;&gt;[email&amp;#160;protected]&lt;/a&gt;&lt;script data-cfhash='f9e31' type=&quot;text/javascript&quot;&gt;\n/* &lt;![CDATA[ */!function(){try{var t=&quot;currentScript&quot;in document?document.currentScript:function(){for(var t=document.getElementsByTagName(&quot;script&quot;),e=t.length;e--;)if(t[e].getAttribute(&quot;data-cfhash&quot;))return t[e]}();if(t&amp;&amp;t.previousSibling){var e,r,n,i,c=t.previousSibling,a=c.getAttribute(&quot;data-cfemail&quot;);if(a){for(e=&quot;&quot;,r=parseInt(a.substr(0,2),16),n=2;a.length-n;n+=2)i=parseInt(a.substr(n,2),16)^r,e+=String.fromCharCode(i);e=document.createTextNode(e),c.parentNode.replaceChild(e,c)}t.parentNode.removeChild(t);}}catch(u){}}()/* ]]&gt; */&lt;/script&gt;\nFormat settings, CABAC                   : Yes\nFormat settings, ReFrames                : 4 frames\nCodec ID                                 : avc1\nCodec ID/Info                            : Advanced Video Coding\nDuration                                 : 2h 17mn\nBit rate                                 : 2 500 Kbps\nWidth                                    : 1 920 pixels\nHeight                                   : 800 pixels\nDisplay aspect ratio                     : 2.40:1\nFrame rate mode                          : Constant\nFrame rate                               : 23.976 fps\nColor space                              : YUV\nChroma subsampling                       : 4:2:0\nBit depth                                : 8 bits\nScan type                                : Progressive\nBits/(Pixel*Frame)                       : 0.068\nStream size                              : 2.40 GiB (92%)\nWriting library                          : x264 core 144 r2525M 40bb568\nEncoding settings                        : cabac=1 / ref=4 / deblock=1:-1:-1 / analyse=0x3:0x113 / me=umh / subme=9 / psy=1 / psy_rd=1.00:0.15 / mixed_ref=1 / me_range=24 / chroma_me=1 / trellis=2 / 8x8dct=1 / cqm=0 / deadzone=21,11 / fast_pskip=1 / chroma_qp_offset=-3 / threads=32 / lookahead_threads=4 / sliced_threads=0 / nr=0 / decimate=1 / interlaced=0 / bluray_compat=0 / constrained_intra=0 / bframes=3 / b_pyramid=2 / b_adapt=1 / b_bias=0 / direct=1 / weightb=1 / open_gop=0 / weightp=2 / keyint=250 / keyint_min=25 / scenecut=40 / intra_refresh=0 / rc_lookahead=50 / rc=2pass / mbtree=1 / bitrate=2500 / ratetol=1.0 / qcomp=0.60 / qpmin=0 / qpmax=69 / qpstep=4 / cplxblur=20.0 / qblur=0.5 / vbv_maxrate=31250 / vbv_bufsize=31250 / nal_hrd=none / filler=0 / ip_ratio=1.40 / aq=3:1.00\nEncoded date                             : UTC 1904-01-01 00:00:00\nTagged date                              : UTC 1904-01-01 00:00:00\n\nAudio\nID                                       : 2\nFormat                                   : AAC\nFormat/Info                              : Advanced Audio Codec\nFormat profile                           : LC\nCodec ID                                 : 40\nDuration                                 : 2h 17mn\nBit rate mode                            : Constant\nBit rate                                 : 224 Kbps\nChannel(s)                               : 2 channels\nChannel(s)_Original                      : 6 channels\nChannel positions                        : Front: L C R, Side: L R, LFE\nSampling rate                            : 48.0 KHz\nCompression mode                         : Lossy\nStream size                              : 220 MiB (8%)\nLanguage                                 : English\nEncoded date                             : UTC 1904-01-01 00:00:00\nTagged date                              : UTC 1904-01-01 00:00:00\n\nMenu #1\nID                                       : 3\nCodec ID                                 : text\nDuration                                 : 2h 17mn\nLanguage                                 : English\nEncoded date                             : UTC 1904-01-01 00:00:00\nTagged date                              : UTC 1904-01-01 00:00:00\nBit rate mode                            : CBR\n00:00:00.000                             : 00:00:00.000\n00:06:34.103                             : 00:06:34.060\n00:17:19.331                             : 00:17:19.288\n00:22:45.240                             : 00:22:45.197\n00:33:14.494                             : 00:33:14.451\n00:40:54.036                             : 00:40:53.993\n00:48:27.489                             : 00:48:27.446\n00:59:22.810                             : 00:59:22.767\n01:03:56.209                             : 01:03:56.166\n01:10:16.463                             : 01:10:16.420\n01:19:23.426                             : 01:19:23.383\n01:28:12.830                             : 01:28:12.787\n01:38:45.713                             : 01:38:45.670\n01:47:48.964                             : 01:47:48.921\n01:54:15.099                             : 01:54:15.056\n02:02:20.418                             : 02:02:20.375\n\nMenu #2\n00:00:00.043                             : 00:00:00.000\n00:06:34.103                             : 00:06:34.060\n00:17:19.331                             : 00:17:19.288\n00:22:45.240                             : 00:22:45.197\n00:33:14.494                             : 00:33:14.451\n00:40:54.036                             : 00:40:53.993\n00:48:27.489                             : 00:48:27.446\n00:59:22.810                             : 00:59:22.767\n01:03:56.209                             : 01:03:56.166\n01:10:16.463                             : 01:10:16.420\n01:19:23.426                             : 01:19:23.383\n01:28:12.830                             : 01:28:12.787\n01:38:45.713                             : 01:38:45.670\n01:47:48.964                             : 01:47:48.921\n01:54:15.099                             : 01:54:15.056\n02:02:20.418                             : 02:02:20.375","torrent":{"xt":"urn:btih:406de0a9cb1cf6183e8f80a2e26fc108beb1d845","amp;dn":"Child.44.2015.1080p.BluRay.H264.AAC-RARBG","amp;tr":["udp%3A%2F%2Ftracker.openbittorrent.com%3A80","udp%3A%2F%2Fopen.demonii.com%3A1337","udp%3A%2F%2Ftracker.coppersurfer.tk%3A6969","udp%3A%2F%2Fexodus.desync.com%3A6969"],"infoHash":"406de0a9cb1cf6183e8f80a2e26fc108beb1d845","infoHashBuffer":{"type":"Buffer","data":[64,109,224,169,203,28,246,24,62,143,128,162,226,111,193,8,190,177,216,69]},"announce":[],"urlList":[]}}